<?xml version="1.0" standalone="no"?>
<!DOCTYPE svg PUBLIC "-//W3C//DTD SVG 20010904//EN"
 "http://www.w3.org/TR/2001/REC-SVG-20010904/DTD/svg10.dtd">
<svg version="1.0" xmlns="http://www.w3.org/2000/svg"
 width="1024.000000pt" height="1024.000000pt" viewBox="0 0 1024.000000 1024.000000"
 preserveAspectRatio="xMidYMid meet">

<g transform="translate(0.000000,1024.000000) scale(0.100000,-0.100000)"
fill="#000000" stroke="none">
<path d="M0 5120 l0 -5120 5120 0 5120 0 0 5120 0 5120 -5120 0 -5120 0 0
-5120z m7305 4424 c130 -17 308 -104 452 -222 57 -46 143 -153 186 -232 77
-141 127 -363 114 -507 -9 -95 -55 -269 -89 -338 -44 -89 -130 -214 -180 -262
-59 -57 -204 -146 -297 -182 -244 -94 -475 -77 -727 53 -241 124 -427 352
-474 580 -36 177 -22 401 34 545 58 146 128 246 245 348 105 92 197 144 324
184 144 45 254 54 412 33z m-2207 -74 c13 -16 58 -55 102 -86 78 -54 128 -105
193 -194 20 -28 51 -54 81 -69 l49 -25 -33 -11 c-18 -6 -41 -21 -51 -33 -22
-28 -83 -222 -72 -232 4 -4 33 -15 63 -24 50 -16 212 -91 555 -256 66 -32 145
-70 175 -84 79 -35 141 -97 110 -108 -7 -2 -6 -14 2 -35 7 -18 9 -36 5 -40
-17 -17 -130 22 -281 96 -88 44 -253 123 -365 176 -169 80 -267 131 -290 151
-2 2 4 21 13 44 33 83 10 92 -77 30 -31 -23 -86 -55 -121 -71 -76 -36 -103
-32 -199 26 -103 62 -155 77 -141 40 4 -8 10 -12 15 -9 5 3 9 -2 9 -11 0 -23
-39 -55 -112 -92 -247 -124 -433 -213 -475 -228 -26 -9 -55 -20 -63 -23 -8 -3
5 -9 30 -13 35 -6 53 -18 81 -49 l35 -41 165 79 c329 159 512 232 577 232 31
0 203 -56 281 -92 599 -275 1026 -491 1211 -612 42 -27 197 -115 259 -146 l44
-22 -7 -56 c-4 -31 -9 -58 -12 -61 -3 -3 -20 3 -37 13 -18 10 -268 137 -557
281 -510 256 -591 295 -996 479 l-191 87 -114 -54 c-63 -30 -159 -73 -214 -97
-55 -23 -143 -62 -195 -85 -106 -48 -139 -60 -157 -57 -9 2 -13 -10 -13 -33 0
-20 -11 -65 -25 -100 l-26 -64 31 -57 c34 -64 36 -84 15 -144 -8 -23 -15 -47
-15 -53 0 -22 520 18 630 48 30 8 129 24 220 36 91 11 215 34 275 50 155 43
198 46 284 20 118 -36 171 -102 157 -195 -16 -98 -87 -166 -194 -187 -70 -13
-209 -7 -257 12 -27 11 -39 7 -120 -33 -81 -40 -302 -131 -380 -155 -19 -6
-31 -17 -33 -31 -5 -31 -52 -66 -129 -96 -37 -14 -108 -48 -158 -75 -79 -42
-90 -52 -93 -77 -12 -143 -51 -377 -84 -504 -22 -85 -43 -165 -45 -178 -5 -19
3 -25 53 -48 150 -65 221 -101 254 -130 23 -21 58 -37 100 -48 81 -21 132 -51
195 -115 27 -28 54 -51 60 -51 6 0 98 -54 205 -120 107 -65 224 -136 260 -156
36 -20 89 -53 119 -72 l54 -37 255 -2 c268 -3 303 -7 359 -50 51 -38 60 -88
31 -180 -21 -69 -29 -81 -87 -134 -63 -58 -79 -65 -143 -60 -18 1 -30 -4 -38
-18 -14 -26 -53 -47 -108 -56 -36 -6 -45 -12 -56 -40 -8 -19 -23 -34 -37 -38
-161 -38 -305 3 -374 107 -19 29 -41 49 -60 55 -16 5 -77 23 -135 41 -285 85
-330 102 -431 163 -57 34 -136 93 -180 134 -73 69 -82 75 -139 84 -58 9 -64 8
-127 -23 l-65 -32 -71 13 c-40 8 -84 16 -99 18 -22 4 -30 -1 -54 -38 -127
-203 -249 -341 -342 -386 -31 -14 -108 -56 -170 -91 -150 -85 -181 -96 -352
-121 -171 -26 -383 -75 -570 -132 -178 -54 -233 -69 -238 -64 -7 7 38 63 67
84 34 25 158 61 306 91 119 23 509 122 584 147 99 33 179 82 264 162 33 31 40
34 58 23 29 -18 62 8 160 131 98 121 152 202 175 263 15 40 20 44 43 40 14 -3
71 -12 127 -22 l101 -16 42 30 c34 25 49 30 79 26 207 -28 245 -41 273 -95 43
-86 222 -195 399 -244 178 -50 364 -107 383 -119 10 -6 30 -32 43 -58 30 -59
50 -72 143 -94 65 -16 76 -16 100 -3 18 10 27 24 29 47 3 28 8 33 45 43 32 8
50 8 74 -1 39 -14 49 -9 58 27 3 15 11 34 17 40 14 18 54 16 83 -3 23 -15 26
-14 50 10 14 14 25 36 25 50 0 18 9 30 29 40 33 18 41 34 41 87 0 30 -5 42
-26 55 -22 15 -53 16 -289 11 l-264 -5 -108 60 c-59 33 -137 80 -173 103 -220
144 -400 255 -413 255 -9 0 -44 29 -79 64 -61 62 -66 65 -180 100 -98 30 -118
40 -118 56 0 24 -64 58 -228 121 l-112 43 6 35 c4 20 19 79 35 131 61 209 101
411 115 588 l7 83 41 28 c83 58 148 91 233 121 94 33 103 40 103 82 0 25 7 29
128 68 70 23 202 78 293 121 l165 79 59 -20 c61 -21 112 -24 214 -14 63 7 76
19 45 44 -8 8 -32 16 -52 19 -45 8 -53 33 -17 49 37 17 65 15 103 -8 39 -24
52 -19 52 20 0 19 -10 36 -30 54 -63 52 -166 60 -281 21 -41 -14 -128 -34
-194 -45 -66 -11 -197 -35 -291 -54 -94 -20 -213 -38 -265 -40 -205 -10 -555
-48 -606 -67 -17 -6 -23 -16 -23 -40 0 -46 -6 -33 -13 27 l-6 52 51 6 c85 12
87 15 81 100 -5 68 -4 75 16 87 27 18 27 23 -9 72 -37 53 -52 147 -27 175 9 9
20 37 26 62 9 38 7 51 -10 88 l-21 42 -66 0 c-94 0 -240 -24 -293 -47 -59 -26
-113 -75 -146 -130 -52 -88 -41 -227 25 -314 15 -20 42 -55 60 -79 34 -45 43
-99 20 -117 -7 -6 -38 -18 -68 -28 -112 -37 -248 -103 -360 -175 -176 -113
-330 -222 -331 -234 -1 -6 0 -21 1 -33 1 -13 -4 -23 -12 -23 -25 0 -177 -95
-260 -162 -46 -36 -136 -116 -201 -176 -89 -83 -138 -121 -200 -152 -45 -24
-90 -50 -101 -59 -28 -25 -54 -83 -61 -137 -6 -41 -3 -53 15 -77 32 -40 70
-54 87 -31 7 10 13 33 13 51 0 35 29 73 55 73 19 0 19 -5 -2 -25 -15 -16 -15
-20 -2 -44 8 -14 23 -26 34 -26 30 0 93 91 116 168 l21 67 189 95 c105 53 244
132 310 175 67 44 126 80 131 80 6 0 26 -11 44 -25 38 -29 47 -30 63 -11 14
16 139 70 186 80 l31 7 36 -98 c68 -185 75 -299 27 -433 -56 -153 -70 -213
-71 -290 -1 -204 118 -313 431 -394 73 -19 136 -37 138 -40 3 -3 -5 -8 -18
-11 -33 -8 -247 47 -324 84 -35 16 -84 48 -109 71 -27 25 -52 40 -60 37 -18
-7 -57 -60 -143 -195 l-66 -103 29 -30 28 -30 -19 -35 c-11 -20 -36 -56 -57
-79 -38 -43 -40 -44 -89 -38 -90 11 -190 -20 -366 -114 -87 -46 -195 -102
-241 -125 l-83 -41 -82 26 c-46 16 -105 27 -134 27 -51 0 -53 -1 -72 -39 -11
-21 -28 -69 -37 -107 -9 -38 -48 -134 -87 -214 -101 -211 -123 -261 -130 -297
-6 -31 -5 -33 29 -39 30 -6 42 -2 77 24 33 24 138 86 188 110 4 1 7 -70 7
-160 l1 -163 -24 64 c-42 114 -77 141 -128 101 -22 -17 -27 -30 -27 -63 0 -23
7 -53 15 -67 18 -31 32 -60 62 -130 13 -30 41 -79 61 -109 l37 -53 3 -142 c3
-131 -18 -502 -37 -641 -5 -42 -24 -93 -63 -170 -31 -60 -62 -135 -68 -165 -7
-30 -19 -67 -26 -82 -8 -15 -14 -31 -14 -36 0 -6 30 -17 68 -27 37 -9 92 -25
122 -36 30 -10 149 -43 264 -73 114 -30 210 -57 213 -59 9 -9 -98 -27 -160
-27 -129 0 -500 62 -654 110 l-65 20 -28 -23 c-15 -12 -87 -76 -160 -142 -217
-196 -310 -268 -326 -252 -17 16 83 121 358 379 128 121 138 128 177 128 l40
0 21 66 c11 36 20 70 20 75 0 28 77 210 105 250 42 58 57 107 54 168 -2 44 0
52 28 75 48 41 61 80 69 208 l7 117 -41 64 c-23 35 -85 162 -137 283 -53 120
-116 257 -142 303 -49 93 -47 71 -27 250 6 52 3 77 -14 130 -28 87 -74 322
-116 601 -62 405 -76 626 -80 1301 l-4 497 25 11 c29 13 244 146 468 289 269
172 607 376 790 477 72 39 179 100 240 135 122 71 354 185 399 196 22 5 32 3
43 -11 12 -17 13 -18 13 -1 0 9 4 15 9 12 16 -10 155 82 196 130 28 34 60 56
110 79 38 18 213 103 387 188 175 86 335 161 355 168 21 8 39 14 41 15 2 1 -1
11 -7 23 -6 11 -22 62 -36 113 -25 95 -41 118 -82 118 -33 0 -28 16 7 23 29 6
51 31 147 170 20 29 64 67 123 107 50 34 96 72 102 86 14 31 20 30 46 -6z
m3782 -937 c-1 -26 -89 -119 -216 -230 -81 -70 -199 -174 -262 -230 -112 -101
-134 -114 -148 -92 -4 7 -1 10 7 7 8 -3 25 11 40 31 48 66 212 219 473 444 86
73 106 87 106 70z m-423 -75 c-34 -49 -584 -596 -615 -612 -32 -16 -52 -15
-52 5 0 5 30 39 68 77 37 37 124 126 194 198 173 180 399 374 417 358 2 -2 -3
-14 -12 -26z m734 -87 c-65 -78 -431 -419 -561 -524 -57 -45 -163 -117 -167
-113 -2 1 4 17 13 34 16 34 101 111 522 480 192 168 275 221 193 123z m-5005
-176 c4 -8 -1 -26 -9 -39 -14 -21 -25 -24 -129 -31 -121 -7 -194 -28 -234 -66
-32 -30 -32 -5 -1 42 31 46 106 75 237 89 58 6 107 13 109 16 9 9 22 3 27 -11z
m946 -156 l23 -18 -27 -21 c-15 -11 -30 -29 -33 -40 -8 -27 -19 -25 -33 5 -6
13 -25 31 -41 40 l-30 15 42 43 42 43 17 -25 c10 -14 27 -33 40 -42z m-926
-19 c8 -25 14 -56 14 -69 0 -23 -1 -22 -39 12 -24 22 -54 37 -79 42 -49 8 -85
31 -62 39 34 13 97 24 124 23 25 -2 31 -8 42 -47z m5127 19 c-34 -57 -487
-466 -514 -463 -5 1 -17 2 -26 3 -29 2 371 371 491 451 32 22 60 40 63 40 2 0
-4 -14 -14 -31z m-1223 -193 c0 -2 -8 -10 -17 -17 -16 -13 -17 -12 -4 4 13 16
21 21 21 13z m-46 -50 c-3 -9 -10 -16 -15 -16 -5 0 -9 -5 -9 -10 0 -15 -72
-80 -88 -80 -12 0 -12 -3 -1 -17 10 -12 11 -15 1 -9 -15 9 -45 -12 -36 -25 3
-5 -2 -6 -10 -3 -10 4 -16 1 -16 -7 0 -9 -5 -7 -11 5 -8 13 -8 21 2 31 39 37
183 154 186 151 2 -2 1 -11 -3 -20z m-2459 -36 c-22 -10 -49 -19 -60 -19 -11
0 0 9 25 19 58 24 88 24 35 0z m1909 -55 c14 -10 28 -27 31 -39 10 -52 16
-136 8 -136 -19 1 -243 149 -243 161 0 3 28 14 62 26 66 22 94 19 142 -12z
m-2210 -29 c-17 -8 -96 -31 -175 -51 -79 -20 -171 -48 -203 -61 -74 -30 -76
-30 -76 1 0 18 7 28 24 35 44 16 392 87 436 88 23 1 23 0 -6 -12z m2448 -138
c47 -68 195 -457 223 -588 8 -36 28 -150 46 -255 28 -162 33 -214 32 -355 0
-195 -20 -364 -68 -581 -43 -191 -54 -226 -67 -207 -7 9 -8 4 -5 -17 5 -28 4
-29 -10 -10 -15 20 -15 19 -8 -2 4 -14 2 -23 -4 -23 -6 0 -8 -7 -4 -16 5 -13
2 -15 -15 -10 -11 4 -23 2 -27 -3 -4 -7 1 -8 12 -4 17 6 17 5 0 -14 -9 -11
-14 -23 -10 -28 5 -4 -2 -3 -13 3 -12 6 -24 8 -28 5 -3 -3 -6 2 -7 13 0 18 -1
18 -9 -1 -7 -17 -9 -17 -9 -2 -1 9 -6 17 -12 17 -5 0 -7 -5 -3 -12 5 -8 2 -9
-12 -4 -39 15 -53 15 -47 -1 5 -12 7 -12 14 -2 6 10 9 9 15 -4 4 -10 13 -16
20 -13 9 3 11 0 7 -11 -4 -11 -2 -14 5 -9 7 4 12 2 12 -4 0 -13 -41 -3 -51 13
-9 13 -29 -1 -29 -20 0 -9 -3 -13 -7 -9 -11 10 -12 36 -2 36 5 0 9 4 9 8 0 4
-9 8 -19 8 -15 0 -18 -6 -15 -26 4 -23 3 -24 -8 -5 -7 11 -12 27 -13 35 0 8
-7 15 -15 15 -22 1 -41 15 -35 26 4 5 1 9 -4 9 -20 0 -11 -20 24 -54 31 -31
36 -46 13 -46 -5 0 -6 5 -2 12 4 7 3 8 -4 4 -7 -4 -12 -2 -12 3 0 6 -3 10 -7
10 -18 -3 -27 2 -16 9 8 5 8 12 -3 26 -8 11 -14 14 -14 8 0 -7 -4 -12 -8 -12
-5 0 -9 7 -9 15 0 8 4 12 9 9 4 -3 8 2 8 10 0 20 -17 20 -36 1 -11 -11 -12
-15 -3 -15 7 0 5 -6 -6 -13 -12 -10 -14 -16 -7 -21 7 -4 12 -2 12 5 0 7 3 10
6 6 3 -3 3 -11 -1 -17 -5 -8 -11 -8 -21 1 -10 8 -14 8 -14 0 0 -6 -5 -11 -11
-11 -8 0 -7 5 1 15 28 33 142 254 189 365 18 41 43 100 56 130 67 156 150 514
165 710 15 204 -26 600 -75 716 -15 37 -42 54 -55 35 -8 -13 -5 -106 4 -150 9
-41 18 -266 18 -426 0 -221 -34 -401 -123 -650 -54 -150 -125 -301 -201 -429
-27 -44 -48 -81 -48 -83 0 -4 -53 -80 -113 -163 -75 -102 -169 -215 -233 -277
-60 -59 -99 -87 -59 -43 17 19 17 20 -1 26 -32 10 -49 22 -47 33 2 6 -8 10
-21 9 -17 -2 -24 -8 -23 -20 1 -12 7 -16 17 -13 12 5 13 4 3 -6 -16 -16 -28
-4 -36 36 -4 17 -4 24 -1 18 4 -10 11 -10 26 -2 11 6 26 8 33 5 15 -5 31 46
21 63 -4 5 0 12 6 15 10 5 10 7 1 12 -7 3 -13 13 -13 21 0 10 -6 14 -20 10
-11 -3 -18 -1 -15 3 3 5 1 11 -5 15 -5 3 -10 18 -11 33 0 16 -3 21 -6 12 -3
-8 -12 -18 -19 -22 -6 -5 -10 -18 -7 -30 3 -17 2 -19 -5 -9 -13 18 -42 7 -49
-19 -3 -11 -9 -17 -14 -14 -5 3 -9 0 -9 -5 0 -6 5 -11 10 -11 6 0 10 -5 10
-12 0 -6 -3 -9 -6 -5 -12 12 -34 -21 -27 -40 6 -15 4 -16 -9 -5 -13 10 -17 10
-21 0 -4 -10 -7 -10 -18 1 -8 8 -9 11 -4 8 6 -3 12 3 12 15 2 19 1 18 -20 -4
-12 -13 -41 -37 -65 -53 -24 -17 -52 -36 -63 -44 -10 -7 -19 -11 -19 -8 0 4
37 34 83 69 94 71 267 224 344 304 32 32 59 51 67 48 8 -3 17 -1 21 5 3 6 -1
11 -11 11 -14 0 -10 8 18 38 49 51 186 232 240 317 169 264 277 568 328 924
19 135 21 184 17 395 -4 209 -7 250 -26 311 -29 96 -27 100 15 25 20 -36 45
-77 56 -92z m1578 3 c-100 -115 -701 -667 -842 -773 l-57 -43 -1 -168 c0 -132
3 -167 13 -161 27 15 108 84 237 199 163 145 250 220 310 265 25 18 64 51 87
73 36 34 44 38 58 27 8 -7 15 -18 15 -24 0 -16 -192 -202 -320 -312 -57 -49
-143 -125 -190 -169 -47 -44 -113 -102 -146 -127 -70 -54 -74 -64 -74 -197 0
-161 -29 -495 -64 -741 -36 -251 -75 -440 -146 -705 -23 -82 -67 -251 -100
-375 -72 -276 -98 -357 -139 -437 -35 -70 -36 -55 12 -233 15 -52 33 -141 41
-197 8 -56 22 -116 31 -133 9 -17 31 -98 50 -181 41 -179 89 -337 121 -401 13
-26 24 -52 24 -58 0 -5 -19 -10 -43 -10 -24 0 -99 -16 -168 -35 -68 -20 -181
-45 -252 -56 -70 -10 -158 -26 -196 -34 -38 -8 -98 -17 -134 -21 -57 -6 -68
-4 -73 10 -17 45 46 72 313 136 114 28 247 62 294 76 l87 26 -28 62 c-15 33
-35 104 -44 156 -9 52 -28 134 -41 181 -36 125 -98 527 -111 709 -6 80 -4 108
9 138 32 76 89 276 176 622 99 396 116 475 165 805 51 334 74 857 60 1353 l-7
268 -105 60 -106 59 -38 100 c-72 188 -79 211 -63 190 53 -69 96 -101 128 -96
4 0 7 -4 7 -11 0 -6 3 -9 6 -5 4 3 13 0 21 -8 8 -8 23 -15 34 -15 14 0 18 -4
13 -12 -6 -10 -4 -10 8 0 10 8 19 9 22 3 3 -5 1 -11 -6 -13 -12 -4 115 -82
187 -115 22 -10 43 -22 47 -28 4 -5 8 -83 8 -172 0 -104 4 -163 10 -163 26 0
274 206 498 412 113 105 345 304 387 332 64 43 70 30 15 -33z m-4552 -68 c-2
-97 -6 -118 -18 -118 -12 0 -16 18 -20 85 -4 69 -8 84 -20 82 -47 -11 -133
-22 -187 -24 l-63 -2 0 -68 c0 -37 -4 -68 -8 -68 -5 0 -16 26 -25 58 -9 33
-23 64 -31 71 -13 11 -15 -19 -14 -241 1 -184 -3 -284 -15 -368 -21 -149 -57
-320 -68 -320 -17 0 -19 20 -5 42 9 14 21 84 32 183 19 188 14 432 -14 560
-17 79 -34 103 -40 55 -2 -17 0 -21 6 -12 7 11 10 10 16 -3 12 -32 7 -48 -14
-42 -12 3 -20 1 -19 -6 4 -33 -1 -40 -18 -26 -15 12 -16 12 -10 -6 l7 -20 -16
20 c-16 19 -16 19 -12 -7 7 -36 2 -35 -17 2 -15 29 -35 40 -35 19 0 -5 4 -7
10 -4 6 4 7 -1 3 -11 -5 -14 -8 -13 -19 9 -13 23 -16 24 -60 15 -59 -13 -140
2 -228 42 -85 39 -131 38 -247 -3 -125 -45 -162 -65 -264 -142 -48 -36 -93
-65 -101 -65 -8 0 -14 -4 -14 -10 0 -12 -11 -13 -30 0 -19 12 -17 13 152 126
121 81 363 204 401 204 10 0 34 -12 52 -26 110 -84 299 -88 352 -7 9 13 19 38
22 55 7 32 8 32 91 45 113 18 338 40 423 42 l68 1 -3 -117z m4012 65 c0 -16
-20 -7 -30 12 -10 19 -10 20 9 8 12 -7 21 -16 21 -20z m20 22 c0 -5 -2 -10 -4
-10 -3 0 -8 5 -11 10 -3 6 -1 10 4 10 6 0 11 -4 11 -10z m-1425 -99 l180 -99
3 -77 c2 -44 -2 -83 -7 -88 -7 -7 -27 -1 -63 18 -96 51 -315 184 -326 197 -7
9 -7 26 -1 53 5 22 11 52 14 68 3 15 9 27 13 27 4 -1 88 -45 187 -99z m849 52
c-9 -16 -26 -34 -36 -41 -15 -11 -16 -17 -8 -27 15 -18 3 -40 -13 -27 -15 12
-61 -4 -52 -18 4 -6 -1 -7 -11 -3 -14 5 -4 19 57 75 41 37 76 68 78 68 2 0 -5
-12 -15 -27z m483 -5 c-3 -8 -6 -5 -6 6 -1 11 2 17 5 13 3 -3 4 -12 1 -19z
m-1810 -10 c-3 -8 -6 -5 -6 6 -1 11 2 17 5 13 3 -3 4 -12 1 -19z m50 -10 c-3
-8 -6 -5 -6 6 -1 11 2 17 5 13 3 -3 4 -12 1 -19z m-963 -89 c8 -78 37 -182 67
-241 13 -26 34 -45 68 -62 55 -28 190 -66 235 -66 48 0 18 -16 -74 -39 -47
-12 -113 -35 -148 -51 -56 -26 -65 -34 -87 -82 -22 -48 -52 -163 -71 -273 -7
-40 -7 -40 -19 30 -16 91 -51 219 -71 256 -25 50 -117 92 -262 121 -34 7 -63
17 -63 23 0 5 31 15 68 23 87 17 204 66 232 96 27 28 64 136 88 252 10 46 20
84 24 84 4 0 10 -32 13 -71z m966 61 c0 -5 -2 -10 -4 -10 -3 0 -8 5 -11 10 -3
6 -1 10 4 10 6 0 11 -4 11 -10z m-135 -197 c-72 -190 -93 -237 -175 -378 -48
-84 -158 -245 -167 -245 -5 0 0 7 75 118 78 114 206 365 251 492 19 52 43 119
54 148 10 29 21 51 24 49 2 -3 -26 -85 -62 -184z m112 165 c-3 -8 -6 -5 -6 6
-1 11 2 17 5 13 3 -3 4 -12 1 -19z m-452 -28 c9 -16 22 -30 30 -30 27 0 25
-19 -4 -34 -16 -9 -33 -25 -36 -36 -8 -26 -29 -21 -33 8 -2 13 -15 25 -35 31
l-31 12 31 19 c17 10 34 28 38 39 9 29 22 26 40 -9z m1689 1 c4 -5 -3 -7 -14
-4 -23 6 -26 13 -6 13 8 0 17 -4 20 -9z m-2660 -66 l33 -34 -23 -22 c-13 -12
-26 -30 -30 -41 -8 -26 -21 -22 -28 8 -4 16 -19 31 -39 39 -31 14 -31 15 -9
21 12 4 29 19 38 35 8 16 17 29 20 29 3 0 20 -16 38 -35z m1402 -2 c-10 -10
-19 5 -10 18 6 11 8 11 12 0 2 -7 1 -15 -2 -18z m1259 17 c-3 -5 -14 -10 -23
-9 -14 0 -13 2 3 9 27 11 27 11 20 0z m-1271 -52 c-4 -13 -7 -31 -6 -42 0 -10
-8 -37 -19 -60 -11 -23 -21 -51 -24 -62 -2 -10 -8 -34 -14 -51 -5 -18 -7 -33
-4 -33 3 0 0 -7 -7 -15 -9 -10 -9 -15 -1 -15 6 0 11 -7 11 -15 0 -19 -38 -57
-50 -50 -11 7 -31 -61 -23 -81 3 -8 9 -14 14 -14 5 0 9 -5 9 -11 0 -6 -6 -9
-12 -7 -17 5 -60 -39 -45 -46 8 -3 7 -8 -3 -15 -12 -8 -12 -13 -2 -23 9 -9 12
-9 12 5 0 9 5 17 10 17 6 0 10 -4 10 -8 0 -5 17 -17 38 -27 32 -16 34 -19 16
-23 -16 -2 -21 -9 -18 -25 3 -16 0 -14 -11 8 -15 29 -16 29 -11 4 5 -23 3 -26
-19 -21 -30 5 -32 -8 -5 -33 24 -21 26 -37 5 -29 -8 4 -15 2 -15 -4 0 -6 6
-13 13 -15 12 -5 -8 -9 -50 -10 -15 0 -20 -4 -15 -15 4 -11 7 -12 10 -4 5 16
22 5 22 -14 0 -8 -10 -15 -22 -15 -17 -1 -19 -2 -5 -6 9 -2 17 -9 17 -14 0 -6
-4 -8 -9 -4 -5 3 -12 1 -16 -5 -9 -14 -21 -12 -40 6 -10 11 -24 14 -42 10 -20
-6 -24 -4 -20 8 4 10 1 13 -9 9 -17 -6 -18 -11 0 -28 10 -10 16 -11 25 -2 8 8
11 7 11 -7 0 -9 4 -15 9 -12 4 3 17 -1 27 -9 10 -8 15 -15 9 -15 -5 -1 -20 -3
-32 -6 -16 -3 -23 1 -23 13 0 15 -1 15 -18 0 -10 -9 -40 -20 -66 -23 -25 -4
-49 -11 -52 -16 -3 -5 -2 -7 3 -6 4 1 18 -2 31 -6 16 -5 29 -3 41 8 21 19 31
20 31 3 0 -7 -13 -18 -29 -24 -23 -8 -34 -8 -49 3 -17 12 -22 11 -36 -5 -9
-10 -13 -21 -9 -25 4 -4 -3 -9 -16 -13 -17 -4 -19 -8 -9 -14 9 -6 7 -9 -9 -9
-17 0 -21 -4 -16 -17 3 -10 3 -15 -1 -11 -11 9 -45 -22 -40 -37 3 -6 -4 -20
-16 -30 -14 -13 -20 -14 -20 -5 0 8 -14 -1 -32 -19 -26 -26 -29 -34 -17 -42
11 -7 11 -9 -4 -9 -24 0 -94 -60 -118 -100 -10 -16 -23 -30 -29 -30 -6 0 -22
-12 -36 -27 -13 -14 -26 -24 -29 -21 -3 2 30 39 73 81 314 305 597 721 717
1054 19 52 35 101 35 109 0 18 18 64 25 64 4 0 3 -10 -1 -22z m-2699 -29 c11
-16 1 -19 -13 -3 -7 8 -8 14 -3 14 5 0 13 -5 16 -11z m-933 -271 c47 -57 28
-65 -24 -10 -39 42 -98 125 -98 140 0 6 6 12 13 15 6 2 25 -19 41 -47 15 -28
46 -72 68 -98z m1944 73 c18 -15 18 -17 -18 -54 l-37 -38 -7 26 c-4 18 -15 28
-35 32 -42 8 -44 20 -9 38 16 8 38 27 47 42 l17 26 12 -28 c6 -15 20 -35 30
-44z m-1216 -17 c0 -3 -13 4 -30 16 -16 12 -30 24 -30 26 0 3 14 -4 30 -16 17
-12 30 -24 30 -26z m-900 -45 c-14 -12 -54 -36 -90 -54 -36 -18 -101 -54 -145
-80 -94 -56 -76 -29 30 45 87 60 182 109 210 109 18 0 18 -1 -5 -20z m4236
-88 l35 -24 -34 -31 c-19 -17 -36 -37 -39 -45 -3 -11 -16 -3 -46 27 -23 23
-42 45 -42 49 0 4 17 23 38 43 31 32 38 35 45 21 4 -9 24 -27 43 -40z m794 40
c-5 -11 -10 -37 -11 -58 0 -43 -11 -25 -23 40 -7 35 -5 37 19 37 22 0 24 -3
15 -19z m-4200 -117 c19 -12 46 -32 60 -44 14 -12 44 -38 67 -57 73 -60 216
-253 200 -269 -2 -3 -32 28 -65 68 -32 40 -97 109 -143 152 -46 44 -76 77 -66
73 24 -9 21 6 -7 33 -14 12 -32 20 -40 17 -8 -3 -16 -3 -18 1 -2 4 -42 34 -90
66 -49 32 -88 61 -88 63 0 5 137 -69 190 -103z m2874 53 c-3 -8 0 -24 5 -38 9
-23 10 -22 12 11 l2 35 6 -35 c5 -28 3 -36 -11 -38 -10 -2 -18 -7 -18 -12 0
-5 8 -11 18 -13 9 -2 -1 -3 -23 -1 -22 2 -32 1 -22 -2 19 -6 24 -24 6 -24 -6
0 -16 6 -23 13 -11 10 -11 15 0 25 7 7 20 12 29 12 19 0 20 24 1 42 -10 10
-11 20 -4 31 10 19 30 14 22 -6z m70 -35 c2 -4 -4 -8 -14 -8 -10 0 -16 4 -14
8 3 4 9 8 14 8 5 0 11 -4 14 -8z m-1924 -96 c0 -17 30 -43 55 -48 17 -3 16 -6
-10 -18 -16 -8 -37 -30 -45 -47 -19 -41 -26 -41 -44 1 -9 21 -22 36 -36 38
-28 4 -27 22 2 28 13 3 32 20 43 37 20 30 35 34 35 9z m548 -11 c7 -14 23 -30
37 -37 33 -15 32 -24 -5 -43 -16 -8 -33 -27 -36 -41 -8 -30 -26 -27 -34 7 -3
15 -18 30 -38 38 -40 18 -40 26 -2 39 16 6 35 22 42 36 14 33 22 33 36 1z
m-1515 -153 c45 -29 98 -67 118 -86 36 -33 141 -167 136 -173 -5 -4 -286 96
-315 112 -15 9 -20 14 -12 12 47 -13 190 -61 218 -73 53 -23 58 -16 16 21 -29
26 -36 37 -26 43 10 7 2 19 -30 50 -24 23 -49 40 -56 37 -7 -3 -10 0 -7 5 3 6
-1 10 -10 10 -17 0 -130 82 -200 145 -39 35 -38 35 23 -7 35 -24 100 -67 145
-96z m277 48 c6 -11 8 -20 6 -20 -3 0 -10 9 -16 20 -6 11 -8 20 -6 20 3 0 10
-9 16 -20z m2220 -24 c0 -2 -8 -10 -17 -17 -16 -13 -17 -12 -4 4 13 16 21 21
21 13z m-60 -79 c0 -2 -10 -12 -22 -23 l-23 -19 19 23 c18 21 26 27 26 19z
m-2370 -17 c0 -5 -5 -10 -11 -10 -5 0 -7 5 -4 10 3 6 8 10 11 10 2 0 4 -4 4
-10z m41 -57 c13 -16 12 -17 -3 -4 -17 13 -22 21 -14 21 2 0 10 -8 17 -17z
m2279 14 c0 -2 -15 -16 -32 -33 l-33 -29 29 33 c28 30 36 37 36 29z m265 -27
c3 -5 1 -10 -4 -10 -6 0 -11 5 -11 10 0 6 2 10 4 10 3 0 8 -4 11 -10z m-437
-159 c-56 -60 -155 -150 -218 -200 -114 -91 -249 -188 -220 -159 19 19 208
172 265 214 23 17 93 81 156 142 63 61 116 111 117 112 2 0 -43 -49 -100 -109z
m303 69 c5 0 9 6 9 14 0 11 7 13 28 7 15 -4 32 -6 39 -4 6 2 14 0 17 -5 3 -5
-9 -8 -27 -6 -17 3 -39 1 -47 -3 -33 -15 -48 -11 -42 11 5 18 7 18 10 4 2 -10
8 -18 13 -18z m-41 -20 c0 -5 -4 -10 -10 -10 -5 0 -10 5 -10 10 0 6 5 10 10
10 6 0 10 -4 10 -10z m82 -26 c-9 -16 -10 -14 -9 8 1 15 6 23 11 18 4 -4 4
-16 -2 -26z m506 -47 c23 -23 42 -47 42 -51 0 -17 -71 -96 -86 -96 -18 0 -84
70 -84 89 0 15 67 101 79 101 4 0 26 -19 49 -43z m-2949 18 c45 -9 123 -32
174 -51 146 -55 287 -115 293 -126 3 -5 -12 -25 -35 -44 -75 -65 -151 -224
-151 -319 0 -45 -12 -60 -24 -29 -3 9 -6 28 -6 44 0 33 51 184 86 253 20 38
21 47 9 47 -8 0 -15 -4 -15 -10 0 -5 -4 -10 -9 -10 -5 0 -8 8 -7 17 1 14 -35
29 -169 75 -206 69 -268 94 -317 126 -32 21 -46 24 -90 19 l-53 -5 50 13 c69
18 167 18 264 0z m621 -270 c105 -29 159 -56 208 -108 l33 -34 -46 -38 -46
-38 -22 20 c-26 25 -149 87 -232 118 -33 13 -61 29 -63 37 -4 20 36 68 56 68
9 0 60 -11 112 -25z m1307 -36 c-9 -6 -14 -15 -11 -21 4 -7 2 -8 -4 -4 -7 4
-12 3 -12 -2 0 -4 -17 -18 -37 -30 -21 -12 -53 -37 -71 -55 -30 -31 -112 -85
-112 -74 0 3 37 34 81 69 45 34 102 79 128 100 25 20 48 34 51 31 3 -2 -3 -9
-13 -14z m2843 -84 c0 -15 9 -29 23 -36 25 -13 159 -149 147 -149 -5 0 -24
-22 -43 -48 -19 -27 -56 -61 -82 -76 -42 -25 -50 -27 -72 -15 -26 14 -68 63
-98 115 -25 44 -15 74 50 144 30 33 55 69 55 81 0 11 5 17 10 14 6 -3 10 -17
10 -30z m-7464 -80 c50 -49 64 -69 64 -92 0 -40 -35 -89 -93 -131 l-47 -34
-53 30 c-35 20 -62 44 -82 77 l-29 48 25 46 c16 28 45 59 75 79 27 18 53 43
59 55 9 19 10 19 13 3 2 -10 33 -46 68 -81z m3658 -3 c3 -5 -11 -24 -31 -43
-19 -19 -42 -48 -49 -66 -16 -38 -19 -150 -4 -188 15 -40 -9 -20 -27 23 -16
38 -11 107 13 174 10 30 11 38 0 38 -21 0 -78 -63 -100 -110 -17 -38 -21 -41
-24 -22 -7 43 74 158 130 185 36 18 84 22 92 9z m183 -124 c70 -45 166 -104
213 -131 225 -130 257 -157 201 -165 -23 -4 -355 163 -516 259 -50 29 -93 52
-97 51 -12 -3 -9 12 5 30 12 15 46 37 59 38 3 0 64 -37 135 -82z m2833 -200
c-58 -357 -109 -584 -212 -953 -17 -60 -36 -146 -43 -190 l-12 -80 -12 40
c-14 45 -40 249 -41 311 0 54 50 221 101 337 121 273 195 504 240 756 1 3 3
-2 6 -11 2 -10 -10 -104 -27 -210z m-4482 11 c64 -39 145 -91 180 -115 56 -40
61 -47 51 -66 -11 -20 -12 -19 -52 20 -37 35 -203 148 -286 194 -30 17 -42 38
-20 38 5 0 63 -32 127 -71z m4042 -69 c0 -5 -4 -10 -10 -10 -5 0 -10 5 -10 10
0 6 5 10 10 10 6 0 10 -4 10 -10z m-1434 -24 c-33 -27 -75 -33 -296 -42 -80
-3 -149 -10 -154 -15 -10 -9 -1 -10 89 -14 22 -1 78 4 125 11 79 11 112 11 79
0 -38 -13 -277 -45 -296 -40 -27 7 -29 32 -8 74 14 27 21 30 63 31 26 1 106 5
177 8 72 4 157 8 190 9 l60 1 -29 -23z m1602 -21 c-3 -3 -9 2 -12 12 -6 14 -5
15 5 6 7 -7 10 -15 7 -18z m-331 -7 c-3 -8 -6 -5 -6 6 -1 11 2 17 5 13 3 -3 4
-12 1 -19z m93 -2 c0 -2 -8 -6 -18 -8 -12 -4 -18 1 -19 13 -2 16 2 17 18 9 10
-6 19 -12 19 -14z m285 14 c3 -6 -1 -7 -9 -4 -18 7 -21 14 -7 14 6 0 13 -4 16
-10z m-358 -32 c-3 -7 -5 -2 -5 12 0 14 2 19 5 13 2 -7 2 -19 0 -25z m122 8
c17 -18 19 -26 10 -31 -7 -5 -10 -4 -6 2 4 5 -5 16 -18 23 -13 7 -22 17 -19
22 7 11 8 11 33 -16z m106 14 c3 -5 1 -10 -4 -10 -6 0 -11 5 -11 10 0 6 2 10
4 10 3 0 8 -4 11 -10z m-760 -30 c-3 -5 -2 -10 3 -10 6 0 9 -17 9 -37 -2 -31
-6 -38 -28 -44 -15 -3 -33 -2 -40 3 -12 7 -11 9 1 7 30 -3 51 1 46 9 -3 5 -19
9 -37 10 -17 0 -34 4 -37 7 -4 4 12 5 36 2 44 -4 48 -1 32 23 -8 12 -12 13
-19 2 -6 -11 -9 -9 -13 6 -4 15 -1 18 12 15 10 -3 21 0 24 6 4 6 9 11 12 11 3
0 2 -4 -1 -10z m615 0 c0 -5 -5 -10 -11 -10 -5 0 -7 5 -4 10 3 6 8 10 11 10 2
0 4 -4 4 -10z m115 0 c3 -5 2 -10 -4 -10 -5 0 -13 5 -16 10 -3 6 -2 10 4 10 5
0 13 -4 16 -10z m-838 -22 c-3 -8 -6 -5 -6 6 -1 11 2 17 5 13 3 -3 4 -12 1
-19z m817 -24 c3 -8 2 -12 -4 -9 -6 3 -10 10 -10 16 0 14 7 11 14 -7z m-4439
-89 c13 -50 31 -109 40 -133 25 -61 12 -63 -22 -3 -36 63 -78 193 -69 216 12
33 29 8 51 -80z m3620 48 c9 -16 14 -20 11 -10 -3 9 -2 17 3 17 16 0 21 -13 9
-27 -9 -11 -14 -11 -29 3 -11 10 -19 23 -19 31 0 20 8 16 25 -14z m-3731 -22
c-10 -20 -25 -32 -47 -36 -18 -4 -39 -13 -47 -20 -28 -22 -418 -195 -442 -195
-27 0 2 25 70 59 42 21 127 67 187 101 106 60 242 119 277 120 15 0 15 -3 2
-29z m3626 -11 c0 -5 -2 -10 -4 -10 -3 0 -8 5 -11 10 -3 6 -1 10 4 10 6 0 11
-4 11 -10z m90 -10 c0 -5 -8 -10 -17 -10 -15 0 -16 2 -3 10 19 12 20 12 20 0z
m-255 -60 c-3 -5 -16 -15 -28 -21 -21 -10 -21 -9 2 10 25 23 36 27 26 11z
m310 -135 c-40 -36 -79 -64 -90 -63 l-20 0 20 5 c30 7 47 24 41 40 -3 8 -1 11
4 8 8 -5 53 28 84 62 6 7 16 12 21 13 6 0 -21 -29 -60 -65z m-5109 44 c8 -14
0 -23 -184 -196 -159 -150 -164 -154 -183 -137 -11 10 -19 27 -17 38 3 20 115
124 259 240 72 59 112 76 125 55z m5019 -58 c-3 -6 -11 -11 -16 -11 -5 0 -4 6
3 14 14 16 24 13 13 -3z m-65 -46 c0 -2 -9 -3 -19 -2 -11 0 -18 5 -15 9 4 6
34 0 34 -7z m30 11 c0 -3 -4 -8 -10 -11 -5 -3 -10 -1 -10 4 0 6 5 11 10 11 6
0 10 -2 10 -4z m-1860 -97 c60 -26 115 -83 129 -136 14 -50 14 -357 0 -408
-12 -45 -58 -98 -100 -116 -16 -6 -29 -14 -29 -18 0 -3 24 -19 54 -34 34 -18
65 -44 83 -69 28 -41 28 -42 31 -220 5 -267 -15 -327 -127 -387 -82 -43 -159
-58 -373 -71 -102 -6 -209 -15 -237 -19 l-51 -8 -1 501 c-1 276 -2 609 -3 742
l-1 240 210 16 c254 19 347 16 415 -13z m553 21 l37 0 0 -574 c0 -315 3 -588
6 -606 17 -83 187 -106 244 -33 20 25 20 39 20 609 l0 583 128 -6 c70 -3 128
-7 130 -8 2 -2 3 -288 2 -636 -1 -617 -1 -635 -21 -676 -24 -51 -100 -109
-166 -129 -85 -26 -329 -10 -428 27 -67 25 -129 87 -157 158 -22 55 -22 63
-26 680 l-4 624 99 -6 c54 -4 115 -7 136 -7z m-1333 -146 c0 -84 -3 -114 -12
-114 -7 0 -100 -9 -207 -20 -107 -10 -198 -17 -203 -14 -4 3 -8 -87 -8 -199
l0 -205 38 4 c128 13 246 24 267 24 l25 0 0 -110 0 -109 -32 -5 c-18 -3 -89
-12 -158 -22 -69 -9 -127 -18 -129 -20 -2 -2 -6 -91 -9 -198 l-5 -193 54 8
c122 19 381 51 384 47 1 -1 0 -57 -2 -124 l-6 -121 -171 -18 c-150 -15 -416
-53 -500 -71 l-28 -7 7 54 c4 30 8 369 7 755 l0 700 102 12 c55 7 204 23 331
38 126 14 231 27 234 29 15 15 21 -21 21 -121z m2161 87 c30 -5 83 -12 119
-16 l65 -6 4 -617 c2 -372 7 -619 13 -623 7 -5 224 -36 356 -51 23 -3 23 -6
28 -130 2 -71 3 -128 1 -128 -1 0 -71 13 -155 30 -171 33 -322 56 -429 66
l-73 7 0 662 c0 364 -3 696 -6 738 -8 87 -12 83 77 68z m-3012 -824 l-4 -752
-138 -34 c-76 -18 -139 -32 -140 -30 -1 2 -10 33 -20 69 -9 36 -46 157 -82
270 -35 113 -90 297 -122 410 l-58 205 -5 -520 -5 -520 -110 -38 c-60 -21
-114 -39 -120 -40 -12 -2 -12 105 -5 951 4 515 7 593 20 597 8 2 69 15 135 29
67 14 128 28 137 31 17 7 35 -33 61 -135 29 -110 208 -664 219 -675 1 -2 1
198 -1 444 l-3 448 98 20 c55 11 110 21 123 22 l24 1 -4 -753z m-1440 722 c18
-6 31 -15 29 -19 -6 -14 -734 -712 -888 -850 -159 -143 -145 -133 -169 -118
-42 26 -62 4 419 464 184 177 376 357 425 401 50 44 101 92 114 107 28 30 27
30 70 15z m5625 -98 c76 -16 141 -32 144 -35 5 -5 23 -116 82 -496 10 -69 28
-210 40 -315 17 -159 63 -492 99 -715 5 -30 8 -56 7 -57 -2 -3 -261 82 -273
90 -7 5 -13 27 -13 50 0 23 -7 97 -16 164 l-17 122 -111 26 c-61 14 -122 26
-136 28 l-25 2 -14 -150 c-8 -82 -15 -151 -17 -153 -1 -2 -59 9 -129 25 l-127
27 7 56 c3 30 15 107 26 170 11 63 36 218 55 345 19 126 45 289 59 360 37 196
75 436 75 476 0 20 2 38 5 41 3 3 36 -3 73 -13 37 -10 129 -32 206 -48z
m-6174 -36 c0 -14 -20 -41 -54 -74 -30 -28 -58 -51 -61 -51 -21 0 -45 24 -45
44 0 33 126 132 146 115 8 -6 14 -21 14 -34z m-286 -1237 c-3 -4 -12 -4 -21
-1 -11 4 -14 3 -9 -6 9 -14 -19 -48 -112 -134 -71 -64 -102 -81 -102 -54 0 6
45 56 101 109 75 73 107 97 124 96 13 -1 21 -6 19 -10z m1056 -88 c-13 -11
-28 -20 -33 -20 -6 0 3 11 19 25 15 13 30 22 33 20 2 -3 -6 -14 -19 -25z
m-628 -63 c-20 -36 -136 -155 -350 -357 -155 -147 -220 -196 -235 -181 -19 19
30 75 257 294 288 279 314 301 332 286 12 -9 11 -16 -4 -42z m550 3 c-24 -22
-30 -45 -9 -35 6 4 3 -1 -7 -9 -11 -9 -24 -16 -29 -16 -4 0 -6 -9 -2 -19 6
-20 -18 -43 -296 -283 -68 -60 -169 -149 -224 -199 -82 -74 -146 -119 -171
-119 -11 0 35 61 85 113 56 58 341 317 456 412 33 28 93 80 134 117 41 37 77
65 80 63 2 -3 -5 -14 -17 -25z m3278 -80 c82 -56 152 -128 192 -199 34 -58 39
-103 41 -326 1 -120 -10 -138 -173 -282 -70 -63 -94 -77 -152 -91 -65 -17
-126 -15 -184 5 -66 22 -90 38 -115 79 -11 19 -40 44 -62 56 -106 54 -136 96
-144 200 -3 40 -1 89 4 108 l10 35 81 -1 c107 -1 119 -11 159 -115 50 -131 49
-122 1 -175 l-43 -48 57 47 c107 86 189 88 283 6 29 -26 36 -29 27 -12 -7 12
-17 25 -22 28 -16 10 -12 49 10 109 33 88 69 128 137 154 67 25 101 47 91 57
-4 4 -32 -7 -62 -24 -69 -38 -83 -39 -132 -1 -104 79 -213 146 -218 134 -3 -7
-39 -40 -81 -73 -88 -70 -110 -74 -216 -41 -38 11 -66 15 -69 10 -9 -15 -30
102 -23 130 3 14 22 49 41 78 84 128 241 204 412 199 83 -2 87 -3 150 -47z
m-1501 26 c-3 -3 -20 -8 -39 -11 -56 -9 -72 -16 -67 -28 2 -7 -2 -18 -10 -26
-13 -12 -14 -11 -8 10 5 18 4 20 -4 9 -6 -8 -8 -22 -5 -32 2 -9 0 -19 -5 -22
-5 -4 -67 -15 -138 -26 -70 -11 -155 -26 -188 -34 -155 -34 -542 -131 -647
-162 -131 -38 -268 -64 -335 -64 -40 0 -44 2 -41 22 4 28 96 65 283 113 72 19
163 45 203 60 70 24 279 76 447 110 44 9 123 25 175 36 132 27 392 58 379 45z
m2983 -41 c112 -19 235 -41 273 -50 39 -8 133 -28 210 -44 77 -16 174 -40 215
-54 41 -13 118 -34 170 -47 142 -33 271 -77 315 -108 l40 -27 -41 -3 c-22 -2
-85 7 -140 18 -148 32 -299 65 -489 105 -93 19 -195 42 -225 50 -101 26 -184
44 -255 55 -38 6 -125 22 -193 36 -68 13 -136 24 -152 24 -25 0 -28 4 -32 40
l-4 40 53 0 c29 0 144 -16 255 -35z m-557 -35 c34 -21 72 -68 77 -95 2 -14 -8
-21 -52 -31 -30 -7 -56 -13 -57 -14 -2 0 -3 9 -3 19 0 23 -25 51 -45 51 -8 0
-30 -14 -50 -31 -34 -30 -35 -34 -35 -100 0 -76 15 -102 67 -115 22 -6 31 -2
52 24 26 30 27 30 75 19 26 -6 50 -17 53 -24 8 -21 -43 -79 -90 -102 -51 -25
-104 -27 -155 -5 -103 42 -151 148 -125 275 8 43 97 134 144 148 44 13 105 5
144 -19z m-1889 5 c4 -8 3 -31 0 -50 l-7 -35 -99 0 c-97 0 -100 -1 -106 -24
-13 -55 -5 -61 83 -61 47 0 87 -5 93 -11 6 -6 10 -29 8 -50 l-3 -39 -87 3
c-68 3 -88 0 -89 -10 -1 -7 0 -41 1 -76 l2 -63 -58 3 -57 3 -2 207 -1 207 101
4 c55 1 126 4 158 5 44 1 59 -2 63 -13z m-968 -297 c357 -407 780 -776 1227
-1069 128 -85 360 -221 463 -273 l52 -26 53 26 c80 41 322 179 422 242 102 64
367 258 466 342 36 30 121 102 190 160 122 102 378 352 554 541 l90 96 73 -11
74 -11 -42 -63 c-130 -194 -496 -552 -861 -843 -258 -205 -589 -417 -857 -550
l-163 -81 -52 22 c-96 41 -267 129 -355 182 -217 131 -547 369 -728 525 -50
43 -142 121 -205 175 -123 104 -329 308 -432 428 -55 65 -147 193 -147 206 0
2 15 4 33 5 17 1 43 5 57 9 43 14 51 11 88 -32z m3921 -59 c44 -15 59 -25 47
-29 -10 -3 -18 -10 -18 -15 -3 -29 -52 -118 -88 -161 -162 -188 -502 -528
-634 -632 -32 -26 -120 -97 -195 -157 -194 -158 -241 -192 -389 -289 -304
-198 -605 -369 -817 -464 l-90 -41 -200 98 c-372 183 -711 401 -1058 683 -89
72 -182 147 -207 167 -166 134 -421 386 -606 601 -101 117 -124 149 -124 167
0 17 47 40 97 46 l41 6 93 -112 c132 -159 492 -516 634 -629 66 -53 149 -122
185 -153 85 -74 264 -208 365 -272 44 -28 144 -91 221 -141 78 -50 184 -112
235 -138 94 -47 280 -131 310 -141 22 -6 218 75 340 143 296 162 633 388 884
594 348 284 705 642 870 872 11 15 25 26 30 24 6 -2 39 -14 74 -27z m-2796
-289 c45 -94 60 -115 146 -201 110 -109 189 -155 330 -190 70 -18 104 -20 190
-16 138 7 216 32 328 106 157 103 255 228 318 405 l18 49 19 -23 c17 -20 19
-34 13 -80 -9 -76 -41 -142 -112 -230 -68 -84 -156 -159 -253 -216 -230 -134
-535 -123 -772 29 -78 50 -220 188 -250 244 -53 98 -78 225 -58 293 1 3 8 -11
17 -30 9 -19 38 -82 66 -140z m-1313 -496 c5 -55 7 -59 30 -59 23 0 25 4 28
58 3 56 3 57 34 57 23 0 29 -4 24 -16 -3 -9 -6 -72 -6 -140 l0 -124 -25 0
c-24 0 -25 3 -25 55 0 54 0 55 -30 55 -30 0 -30 0 -30 -56 0 -52 -1 -55 -22
-52 -22 3 -23 6 -23 128 0 69 3 133 8 143 14 35 32 11 37 -49z m-884 39 c3
-10 13 -36 23 -58 l18 -40 17 58 c15 49 21 57 42 57 30 0 30 -4 -6 -107 -16
-46 -30 -102 -30 -124 0 -34 -3 -39 -24 -39 -22 0 -24 5 -31 64 -4 37 -18 89
-36 126 -16 34 -29 66 -29 71 0 17 52 10 56 -8z m315 -2 c22 -18 24 -26 24
-120 -1 -122 -10 -136 -82 -133 -69 3 -77 16 -81 127 -4 90 -3 95 22 120 31
31 83 34 117 6z m141 -88 c3 -102 4 -108 25 -111 19 -3 22 3 27 40 4 24 7 72
9 108 2 53 5 65 20 68 15 3 17 -8 17 -115 0 -142 -9 -163 -70 -163 -30 0 -43
6 -59 26 -18 23 -21 41 -21 140 l0 114 25 0 c24 0 24 -1 27 -107z m328 77 c0
-28 -3 -30 -35 -30 l-34 0 2 -99 c2 -104 -6 -130 -38 -117 -14 5 -16 21 -13
111 l3 105 -28 0 c-29 0 -43 19 -33 45 4 12 24 15 91 15 l85 0 0 -30z m3990
20 c23 0 40 -34 40 -80 0 -47 -2 -49 -42 -72 -54 -30 -56 -52 -5 -56 32 -3 37
-7 37 -28 0 -23 -2 -24 -70 -24 l-70 0 0 40 c0 36 5 43 55 81 58 44 61 49 45
80 -14 26 -28 24 -42 -6 -14 -31 -58 -36 -58 -6 0 11 3 27 6 36 8 20 63 46 82
40 8 -3 17 -5 22 -5z m254 -11 c25 -19 26 -25 26 -110 0 -82 -2 -92 -25 -114
-26 -27 -65 -32 -109 -15 -26 9 -26 11 -26 115 l0 105 33 20 c41 25 68 25 101
-1z m142 8 c2 -7 8 -55 12 -107 6 -86 9 -95 27 -95 19 0 20 8 23 108 3 105 3
108 25 105 21 -3 22 -8 25 -119 3 -134 -4 -149 -68 -149 -68 0 -79 19 -80 140
-1 58 -1 111 -1 118 1 16 30 16 37 -1z m564 -109 c0 -129 -6 -153 -33 -142
-13 5 -17 19 -17 65 0 62 -4 67 -32 45 -13 -9 -18 -27 -18 -59 0 -33 -5 -47
-17 -51 -9 -4 -20 -3 -24 1 -4 4 -9 62 -11 128 l-3 120 25 0 c24 0 25 -2 22
-52 -2 -51 -2 -52 27 -51 27 1 29 4 36 52 6 46 17 65 38 66 4 0 7 -55 7 -122z
m-230 81 c0 -23 -4 -30 -14 -26 -15 6 -26 -20 -26 -66 0 -16 -9 -42 -21 -58
l-20 -29 30 0 c24 0 31 -4 31 -19 0 -25 -24 -33 -77 -25 -38 6 -43 9 -43 33 0
14 14 46 30 70 38 56 40 96 5 105 -14 4 -34 2 -45 -4 -17 -9 -20 -8 -20 13 0
13 3 27 7 30 3 4 42 7 85 7 l78 0 0 -31z m-4888 -416 c3 -57 6 -68 22 -71 25
-5 36 14 36 68 0 25 5 52 10 60 7 10 10 -6 10 -55 0 -80 -9 -95 -56 -95 -39 0
-44 11 -44 96 0 85 18 82 22 -3z m236 55 c7 -7 12 -18 12 -26 0 -10 -4 -10
-22 2 -15 11 -25 12 -34 5 -18 -15 -6 -38 15 -32 22 6 51 -31 51 -64 0 -21 -5
-23 -45 -23 l-45 0 0 75 0 75 28 0 c15 0 33 -5 40 -12z m-508 -8 c0 -5 -14 -7
-32 -3 -46 8 -48 13 -5 13 21 0 37 -4 37 -10z m106 -77 c4 -29 9 -33 34 -33
17 0 30 -4 30 -10 0 -5 -18 -10 -40 -10 l-40 0 1 73 c1 39 4 59 6 42 2 -16 6
-45 9 -62z m-108 -11 c4 -36 -25 -58 -61 -46 -21 7 -20 8 8 14 41 7 44 35 6
55 -43 22 -39 35 7 20 30 -11 38 -18 40 -43z"/>
<path d="M7045 9431 c-160 -26 -293 -92 -411 -204 -180 -170 -255 -371 -241
-652 5 -123 26 -192 92 -311 96 -173 353 -351 555 -383 132 -22 297 -5 414 40
195 77 365 260 430 464 39 123 45 162 46 273 0 311 -134 535 -410 685 -131 72
-338 110 -475 88z m235 -89 c0 -5 -57 -12 -127 -15 -155 -8 -228 -9 -221 -2
18 19 348 34 348 17z m182 -63 c60 -30 103 -62 160 -118 l79 -77 -6 -45 c-12
-88 -37 -205 -48 -229 -11 -22 -21 -26 -77 -32 -36 -3 -90 -11 -120 -16 l-55
-10 -46 41 c-25 23 -87 71 -137 107 l-92 65 0 111 0 110 58 27 c31 15 82 35
112 45 36 12 58 26 65 40 5 12 13 22 18 22 4 0 44 -18 89 -41z m-567 -63 c42
-7 168 -37 172 -41 2 -1 5 -52 8 -113 l6 -111 -86 -93 c-48 -51 -98 -112 -112
-135 l-25 -43 -109 0 -110 0 -24 52 c-13 28 -33 92 -45 142 l-22 91 37 63 c47
81 83 121 157 177 56 42 61 44 86 31 15 -7 45 -16 67 -20z m784 -518 c22 -29
56 -87 76 -128 44 -89 44 -88 55 -70 17 27 12 -11 -11 -80 -19 -59 -80 -162
-110 -187 -8 -6 -45 -22 -84 -34 -55 -18 -93 -23 -175 -24 -142 0 -164 10
-185 84 -9 31 -20 66 -25 79 -6 13 -10 33 -10 45 0 27 53 130 128 250 52 83
56 87 91 88 20 0 70 6 111 13 41 8 80 14 87 15 7 0 30 -23 52 -51z m-776 -106
c59 -78 149 -158 205 -182 46 -20 53 -27 62 -64 6 -22 20 -70 31 -106 l21 -65
-34 -28 c-73 -61 -225 -115 -290 -103 -46 8 -176 93 -231 150 -62 63 -102 149
-100 212 2 51 38 162 68 208 17 25 20 26 124 26 l107 0 37 -48z"/>
<path d="M5060 9322 c-8 -7 -66 -62 -128 -122 l-113 -110 19 -28 c16 -23 39
-75 83 -189 4 -12 32 -34 61 -49 29 -15 63 -35 76 -45 22 -17 24 -17 56 4 19
12 48 30 65 39 21 12 39 34 52 65 44 105 74 164 90 179 16 14 11 21 -66 97
-155 154 -179 173 -195 159z m46 -120 c18 -73 19 -74 47 -68 30 6 114 -11 122
-24 3 -5 -17 -16 -45 -25 -53 -17 -93 -58 -86 -84 3 -9 8 -29 12 -46 l7 -30
-41 38 c-23 20 -46 37 -50 37 -5 0 -21 -13 -37 -30 -39 -40 -49 -38 -30 7 27
64 13 85 -80 119 -14 5 0 10 50 18 l70 11 14 82 c8 46 18 80 22 75 3 -4 15
-40 25 -80z"/>
<path d="M3600 8090 c-8 -5 -87 -49 -175 -98 -88 -49 -178 -100 -200 -113 -22
-14 -123 -72 -225 -129 -206 -115 -396 -231 -667 -407 -100 -65 -238 -155
-308 -200 -69 -45 -131 -83 -137 -85 -8 -3 -8 -148 1 -550 14 -679 27 -834
121 -1428 44 -276 41 -262 56 -249 17 14 58 123 88 238 22 82 24 97 12 120
-25 48 -45 134 -71 311 -49 326 -57 455 -62 980 l-4 495 50 30 c28 17 115 75
195 130 145 100 506 332 575 370 20 11 120 68 221 126 256 147 374 212 452
249 l66 32 7 62 c4 33 10 76 15 94 5 17 8 32 7 31 -1 0 -9 -4 -17 -9z"/>
<path d="M3580 7741 c-79 -39 -224 -117 -305 -166 -38 -23 -128 -75 -200 -115
-125 -71 -394 -238 -732 -457 l-162 -105 -3 -187 c-3 -176 2 -229 17 -182 10
31 95 102 171 141 43 22 109 72 178 135 186 168 278 245 357 296 50 33 81 60
91 83 12 24 42 49 110 92 51 32 152 97 223 144 158 106 216 137 323 180 45 18
84 36 87 39 2 4 -14 29 -35 55 -22 27 -40 54 -40 62 0 20 -17 17 -80 -15z"/>
<path d="M3400 6799 c-73 -32 -121 -36 -173 -14 -35 15 -37 14 -69 -14 -60
-52 -159 -110 -334 -195 l-172 -85 -17 -50 c-21 -65 -94 -164 -142 -194 -21
-13 -68 -34 -105 -46 -67 -22 -67 -22 -110 -3 -24 11 -55 31 -70 45 l-28 26 0
-52 c0 -138 42 -508 106 -928 l5 -36 72 -5 c41 -3 107 -17 154 -33 l83 -28 92
55 c169 100 297 167 356 187 64 22 213 44 237 35 26 -10 30 27 7 67 l-22 37
29 56 c16 30 51 88 78 128 26 40 60 93 74 116 l26 44 -19 61 c-16 51 -19 82
-15 177 4 105 9 127 52 250 43 125 46 140 41 205 -5 67 -51 226 -64 224 -4 -1
-36 -14 -72 -30z m-240 -287 c12 -47 30 -64 93 -91 26 -11 47 -22 47 -25 0 -2
-22 -12 -50 -21 -56 -19 -85 -49 -94 -100 -7 -35 -26 -49 -26 -19 0 24 -41 92
-65 108 -11 7 -35 17 -53 20 -17 4 -32 11 -32 16 0 4 24 17 54 29 46 19 56 28
76 72 13 27 27 49 31 49 5 0 13 -17 19 -38z m-281 -423 l34 -40 -36 -37 -36
-36 -26 24 c-38 35 -41 58 -11 81 14 11 26 27 26 35 0 22 12 15 49 -27z"/>
<path d="M7073 5585 c-17 -19 -16 -25 2 -25 8 0 15 9 15 20 0 23 -1 24 -17 5z"/>
<path d="M7126 5587 c3 -10 9 -15 12 -12 3 3 0 11 -7 18 -10 9 -11 8 -5 -6z"/>
<path d="M7022 5535 c-17 -16 -19 -22 -8 -22 9 0 16 5 16 11 0 6 5 3 11 -7 8
-13 7 -23 -2 -35 -12 -15 -11 -16 3 -2 12 11 15 23 10 46 l-7 31 -23 -22z"/>
<path d="M7570 5535 c-7 -9 -11 -17 -9 -20 3 -2 10 5 17 15 14 24 10 26 -8 5z"/>
<path d="M7580 5508 c0 -4 7 -8 15 -8 8 0 15 4 15 8 0 5 -7 9 -15 9 -8 0 -15
-4 -15 -9z"/>
<path d="M6991 5491 c-9 -6 -10 -10 -2 -16 7 -4 9 -16 5 -28 -3 -12 -3 -19 1
-15 6 6 16 69 11 68 -1 0 -7 -4 -15 -9z"/>
<path d="M7660 5491 c0 -6 4 -13 10 -16 6 -3 7 1 4 9 -7 18 -14 21 -14 7z"/>
<path d="M6947 5453 c-11 -10 -8 -51 3 -58 7 -4 9 3 4 22 -6 27 -6 27 9 8 8
-11 14 -22 12 -25 -2 -3 8 -5 21 -5 l24 0 -25 18 c-14 10 -25 25 -25 33 0 15
-12 19 -23 7z"/>
<path d="M7035 5389 c-4 -6 -5 -12 -2 -15 2 -3 7 2 10 11 7 17 1 20 -8 4z"/>
<path d="M7145 5343 c1 -10 -2 -24 -8 -30 -13 -18 1 -16 19 2 9 9 11 15 4 15
-6 0 -9 4 -5 9 3 5 1 12 -4 15 -5 4 -8 -2 -6 -11z"/>
<path d="M6795 5320 c3 -5 1 -10 -4 -10 -6 0 -11 -5 -11 -11 0 -8 5 -8 15 1
17 14 20 30 4 30 -5 0 -7 -4 -4 -10z"/>
<path d="M7011 5299 c-10 -18 -10 -20 1 -16 7 2 20 -2 30 -10 11 -10 18 -11
23 -4 3 6 -2 11 -12 12 -13 1 -11 3 7 9 21 7 22 8 5 9 -12 1 -25 5 -31 11 -6
6 -14 2 -23 -11z"/>
<path d="M6990 5263 c0 -12 31 -33 41 -27 6 3 15 0 20 -7 6 -10 9 -11 9 -1 0
6 7 12 16 12 8 0 12 5 8 11 -4 7 -9 8 -17 0 -7 -7 -17 -7 -31 1 -23 13 -46 19
-46 11z"/>
<path d="M6975 5231 c-6 -11 13 -26 22 -17 4 3 0 6 -8 6 -11 0 -11 2 1 10 9 6
10 10 3 10 -6 0 -14 -4 -18 -9z"/>
<path d="M4245 7390 c-3 -5 -1 -10 4 -10 6 0 11 5 11 10 0 6 -2 10 -4 10 -3 0
-8 -4 -11 -10z"/>
<path d="M4200 7339 c0 -5 9 -9 20 -9 11 0 20 2 20 4 0 2 -9 6 -20 9 -11 3
-20 1 -20 -4z"/>
<path d="M6741 6854 c0 -11 3 -14 6 -6 3 7 2 16 -1 19 -3 4 -6 -2 -5 -13z"/>
<path d="M6690 6770 c0 -5 5 -10 10 -10 6 0 10 5 10 10 0 6 -4 10 -10 10 -5 0
-10 -4 -10 -10z"/>
<path d="M6710 6709 c0 -5 5 -7 10 -4 6 3 10 8 10 11 0 2 -4 4 -10 4 -5 0 -10
-5 -10 -11z"/>
<path d="M4550 4482 l0 -210 68 5 c165 12 172 21 172 226 0 182 1 180 -141
185 l-99 4 0 -210z"/>
<path d="M4588 4073 l-38 -4 0 -205 0 -204 59 0 c75 0 162 16 179 34 23 23 30
93 23 226 l-6 125 -35 17 c-34 17 -89 20 -182 11z"/>
<path d="M7386 4400 c-55 -319 -99 -583 -103 -616 l-5 -40 107 -23 c59 -12
109 -20 111 -18 3 2 -7 74 -20 158 -14 85 -32 217 -41 294 -25 233 -27 249
-35 265 -6 10 -10 4 -14 -20z"/>
<path d="M3238 3033 c7 -3 16 -2 19 1 4 3 -2 6 -13 5 -11 0 -14 -3 -6 -6z"/>
<path d="M6948 2813 c7 -3 16 -2 19 1 4 3 -2 6 -13 5 -11 0 -14 -3 -6 -6z"/>
<path d="M2490 1885 c0 -84 0 -85 25 -85 25 0 25 1 25 85 0 84 0 85 -25 85
-25 0 -25 -1 -25 -85z"/>
<path d="M7204 1957 c-3 -8 -4 -45 -2 -83 3 -63 5 -69 25 -72 28 -4 35 21 31
103 -3 54 -5 60 -26 63 -12 2 -24 -3 -28 -11z"/>
<path d="M3060 1524 c0 -17 6 -24 20 -24 13 0 20 7 20 19 0 10 -9 21 -20 24
-16 4 -20 0 -20 -19z"/>
</g>
</svg>
